<?xml version="1.0" encoding="utf-8"?>
<!-- Generator: Adobe Illustrator 24.3.0, SVG Export Plug-In . SVG Version: 6.00 Build 0)  -->
<svg version="1.1" id="Layer_1" xmlns="http://www.w3.org/2000/svg" xmlns:xlink="http://www.w3.org/1999/xlink" x="0px" y="0px"
	 viewBox="0 0 358.8 83" style="enable-background:new 0 0 358.8 83;" xml:space="preserve">
<style type="text/css">
	.st0{fill:#010202;}
	.st1{fill:#DB0D15;}
	.st2{fill:#FFFFFF;}
</style>
<g>
	<path class="st0" d="M344.8,83H14C6.3,83,0,76.7,0,69L0,14C0,6.3,6.3,0,14,0l330.9,0c7.7,0,14,6.3,14,14V69
		C358.8,76.7,352.5,83,344.8,83z"/>
	<g>
		<path class="st1" d="M240.7,27.6v32h-3.3V24.7h5.3l15.3,30.6l15.3-30.6h5.4v34.9h-3.3V28.1l-15.5,31.5h-3.3L240.7,27.6z"/>
		<path class="st1" d="M285.1,24.7h3.3v34.9h-3.3V24.7z"/>
		<path class="st1" d="M298.2,59.6h-3.3V24.7h5.7l24,30.6V24.7h3.3v34.9h-4.4l-25.4-31.3V59.6z"/>
		<path class="st1" d="M334.5,24.7h3.3v34.9h-3.3V24.7z"/>
	</g>
	<g>
		<path class="st2" d="M162.2,11.8h25.6v59.5h-25.6V11.8z M175.9,34.9c-5.2,0-9,2.7-9,7.8h5.2c0.1-2,1-3.5,3.6-3.5
			c1.7,0,3.2,1,3.2,2.3v1.7c-3.7,1.4-4.4,1.1-8.4,2.6c-3.1,1.1-4.6,3-4.6,6.6c0,4.3,2.7,7.3,7.1,7.3c2.1,0.1,4.1-0.6,5.7-2l0.2-0.2
			l0.1,1.6h6.1c-0.7-1.2-1.1-2.5-1-3.8V42.2C184.1,37.4,181.1,34.9,175.9,34.9L175.9,34.9z M179.1,47.6v3.3c0,2.2-2.3,4.1-4.4,4.1
			c-2.2,0-3.6-1.1-3.6-3C171.1,49.4,173.4,48.9,179.1,47.6L179.1,47.6z M102.3,11.8h25.6v59.5h-25.6V11.8z M111.9,35.6v23.8h5.5
			V35.6H111.9L111.9,35.6z M111.9,26.6v5.3h5.5v-5.3H111.9L111.9,26.6z M132.2,11.8h25.6v59.5h-25.6V11.8z M139,35.2V39h2.3v11.3
			c0,6.4,1.9,9.2,7.1,9.2c0.5,0,1.2,0,1.9-0.1h0.2v-5.5c-2.8,0-3.7-0.7-3.7-3.1V39h3.6v-3.8h-3.7v-8.6h-5.5v8.6L139,35.2L139,35.2z
			 M13.5,11.8H39v59.5H13.5V11.8z M30.5,26.6v10.2c-2-1.6-2.7-1.9-5-1.9c-5.8,0-9.8,4.3-9.8,12.4c0,7.4,4.4,13.1,9.9,13.1
			c1.6,0,3-0.4,4.9-1.7l0.3-0.2v1H36V26.6H30.5z M30.7,45.9v3.6c0,3-2.2,5.3-4.6,5.3c-2.9,0-5-3-5-7.5c0-4.7,2-7.1,4.7-7.1
			C28.8,40.2,30.7,42.7,30.7,45.9L30.7,45.9z M43.4,11.8H69v59.5H43.4V11.8z M53.1,35.6v23.8h5.5V35.6H53.1z M53.1,26.6v5.3h5.5
			v-5.3H53.1z M73.4,11.8H99v59.5H73.4V11.8z M81.2,59.4h-5.1c0.5,4.7,2.8,7.1,8.4,7.1c7,0,10.2-3.6,10.2-9.7V35.5l-5.2,0.1v1.6
			c-1.3-1.4-2.5-2.3-5.2-2.3c-5.4,0-9.3,4.8-9.3,11.9c0,6.8,3.3,11.3,9.3,11.3c2.1,0,4.1-0.7,5.2-1.8l0.2-0.2v1.6
			c-0.2,2.4-1.9,4.4-4.7,4.4C82.8,62.2,81.3,61,81.2,59.4L81.2,59.4z M89.7,45.9v2.9c0,2.6-2.2,4.7-4.5,4.7c-2.9,0-4.8-2.5-4.8-6.7
			c0-3.9,2.2-6.8,4.7-6.8C87.9,40,89.7,42.5,89.7,45.9z M192.2,11.8h25.6v59.5h-25.6L192.2,11.8L192.2,11.8z M202.3,26.6v32.8h5.5
			V26.6H202.3z"/>
	</g>
</g>
</svg>
